<?xml version="1.0" standalone="no"?>
<!DOCTYPE svg PUBLIC "-//W3C//DTD SVG 20010904//EN"
 "http://www.w3.org/TR/2001/REC-SVG-20010904/DTD/svg10.dtd">
<svg version="1.0" xmlns="http://www.w3.org/2000/svg"
 width="664.000000pt" height="665.000000pt" viewBox="0 0 664.000000 665.000000"
 preserveAspectRatio="xMidYMid meet">

<g transform="translate(0.000000,665.000000) scale(0.100000,-0.100000)"
fill="#000000" stroke="none">
<path d="M2836 5199 c3 -5 11 -9 19 -9 7 0 26 -16 41 -36 16 -19 34 -41 39
-47 21 -25 45 -67 45 -79 0 -10 -2 -10 -9 0 -6 10 -10 9 -14 -7 -7 -30 -37
-16 -37 18 0 21 -2 23 -11 11 -8 -12 -9 -11 -5 5 3 11 2 26 -3 34 -7 10 -13 2
-22 -30 -7 -24 -16 -48 -20 -53 -11 -13 -22 37 -17 84 2 22 0 36 -4 32 -4 -4
-8 -29 -9 -55 -2 -52 -6 -54 -49 -32 -17 9 -30 11 -30 5 0 -19 -28 -10 -33 10
-3 13 -11 18 -20 14 -9 -3 -14 -11 -11 -18 4 -11 -52 -61 -69 -61 -5 0 -34
-27 -66 -60 -32 -33 -64 -65 -72 -72 -26 -22 -39 -42 -39 -58 0 -9 -16 -25
-35 -36 -40 -24 -45 -33 -12 -24 l22 7 -22 -24 c-66 -71 -137 -138 -146 -138
-6 0 -17 -7 -26 -15 -9 -8 -27 -23 -40 -33 -21 -17 -22 -20 -10 -42 8 -13 20
-30 27 -38 6 -7 12 -17 12 -21 0 -4 10 -18 22 -30 16 -19 21 -34 19 -70 -7
-123 11 -414 34 -536 9 -49 17 -133 18 -185 2 -87 0 -95 -19 -105 -37 -18 -54
-37 -54 -57 0 -10 11 -64 25 -119 13 -55 31 -155 40 -222 18 -141 44 -204 110
-271 33 -34 46 -56 54 -96 20 -94 60 -199 117 -308 l56 -107 -5 -140 c-4 -121
-8 -149 -31 -209 -15 -38 -36 -82 -46 -96 -30 -43 -37 -79 -60 -355 -4 -55
-11 -108 -15 -117 -4 -11 -3 -18 4 -18 6 0 -2 -13 -17 -30 -16 -16 -34 -30
-39 -30 -6 0 -24 -30 -39 -67 -16 -37 -48 -90 -71 -119 -45 -55 -93 -138 -93
-160 0 -8 -4 -14 -10 -14 -12 0 -12 1 1 97 10 75 29 139 56 193 7 14 13 32 13
40 0 8 14 44 31 80 25 54 69 170 69 183 0 8 -195 -94 -198 -103 -2 -6 -12 -10
-23 -10 -11 0 -30 -6 -42 -14 -12 -8 -58 -29 -102 -46 -110 -43 -114 -44 -167
-68 -41 -19 -48 -19 -48 -6 0 8 -5 12 -10 9 -6 -4 -8 -10 -5 -15 3 -4 -4 -10
-15 -13 -11 -3 -20 0 -20 5 0 6 -7 4 -17 -3 -9 -8 -24 -13 -35 -11 -11 2 -18
-3 -18 -12 0 -21 -21 -31 -30 -15 -7 10 -13 7 -29 -12 -17 -19 -20 -21 -21 -7
0 12 -5 15 -17 11 -25 -9 -57 -43 -41 -43 7 0 0 -7 -16 -15 -36 -19 -52 -19
-36 0 8 10 9 15 2 15 -6 0 -15 -6 -19 -14 -4 -8 -46 -34 -93 -58 -47 -25 -111
-61 -143 -81 -50 -32 -57 -41 -51 -60 6 -18 4 -20 -7 -10 -12 10 -15 8 -16 -9
-1 -12 -18 -45 -38 -73 -19 -28 -35 -59 -35 -68 0 -9 -5 -16 -11 -14 -12 2
-32 -55 -43 -121 l-6 -42 994 0 994 0 7 58 c4 31 13 72 20 89 15 35 67 73 102
73 11 0 46 10 77 21 31 12 59 19 62 16 9 -9 -55 -87 -71 -87 -8 0 -12 -11 -9
-32 1 -18 3 -37 3 -42 1 -4 8 -6 16 -2 8 3 15 1 15 -4 0 -19 31 -10 55 16 22
23 24 24 34 7 6 -10 11 -13 11 -8 0 6 5 3 10 -5 9 -13 13 -12 30 9 26 30 26
51 0 44 -11 -3 -20 -9 -20 -14 0 -5 -7 -9 -15 -9 -19 0 -19 9 2 78 9 32 16 60
15 63 -1 4 12 9 28 12 18 4 31 14 36 29 3 13 11 26 17 30 19 12 28 -2 16 -25
-11 -20 -9 -20 14 3 15 16 46 30 80 37 63 13 121 48 136 80 6 13 16 23 22 23
7 0 9 9 5 26 -4 16 -3 23 3 20 6 -4 26 28 46 70 36 80 56 97 31 28 -32 -91
-67 -155 -106 -198 -24 -25 -48 -46 -54 -46 -6 0 -22 -21 -36 -47 -13 -27 -30
-57 -38 -68 -13 -18 -13 -16 -7 20 l6 40 -29 -45 c-17 -25 -42 -58 -56 -74
-14 -16 -23 -33 -20 -37 3 -5 1 -9 -4 -9 -5 0 -8 -16 -8 -35 1 -35 10 -46 19
-22 3 9 8 9 21 -2 14 -12 18 -12 31 5 8 10 17 38 21 62 6 39 8 41 21 25 13
-16 14 -16 9 -1 -5 19 50 128 65 128 6 0 9 9 7 20 -2 10 1 18 7 17 5 -1 9 -6
7 -12 -2 -5 4 -15 14 -22 11 -8 15 -21 12 -42 -3 -17 -3 -31 -2 -31 1 0 12 16
24 35 21 35 23 35 46 20 15 -10 24 -11 24 -4 0 6 15 2 35 -10 l35 -20 0 23 c0
19 4 22 25 18 14 -2 25 -10 25 -18 0 -22 25 -6 36 24 7 17 29 36 60 52 27 13
70 42 96 62 26 21 51 38 56 38 5 0 15 7 22 16 18 21 3 34 -100 84 -159 77
-204 105 -194 122 3 4 -2 8 -10 8 -9 0 -16 5 -16 10 0 10 13 14 37 11 11 -1
16 14 29 99 3 24 10 51 15 60 4 8 17 53 29 100 12 47 41 138 66 202 55 145 58
204 17 304 -26 63 -48 88 -83 96 -13 3 -15 -19 -15 -147 l0 -150 -36 -55 c-68
-104 -182 -192 -241 -188 -20 2 -36 5 -36 8 3 18 -17 60 -28 60 -8 0 -14 10
-14 25 0 16 -6 25 -15 25 -8 0 -15 5 -15 10 0 13 -47 13 -55 0 -4 -6 -15 -8
-24 -5 -10 3 -24 -1 -31 -10 -7 -8 -19 -15 -27 -15 -12 0 -13 3 -4 14 9 11 6
15 -14 20 -14 4 -25 14 -25 22 0 10 6 14 14 11 10 -4 13 -1 9 9 -3 7 1 14 8
14 7 0 9 3 6 6 -4 4 -14 1 -23 -6 -13 -12 -17 -11 -25 1 -14 22 -11 33 6 19
12 -10 15 -9 15 6 0 16 2 17 10 4 8 -12 10 -12 11 5 l0 20 9 -20 c7 -17 9 -17
9 -3 1 11 6 15 16 11 9 -3 21 1 28 10 11 14 63 32 80 28 5 -1 6 2 3 7 -3 5 12
18 34 28 22 10 38 24 36 30 -3 7 9 14 25 18 17 3 29 12 29 21 0 19 26 48 58
64 12 7 20 16 17 20 -3 5 6 12 20 15 14 4 24 12 22 18 -1 7 8 17 21 23 12 5
22 13 22 17 0 4 19 17 42 29 31 16 38 23 27 30 -12 7 -12 9 1 10 8 1 18 1 22
1 3 -1 14 15 23 36 10 20 27 50 37 65 39 54 79 138 93 194 19 71 19 74 0 67
-8 -4 -12 -10 -9 -15 8 -13 -28 -109 -38 -103 -4 3 -9 0 -9 -5 -1 -6 -2 -15
-3 -21 -2 -18 -21 -10 -21 10 0 10 -5 23 -9 27 -5 4 -7 4 -4 -2 3 -5 -7 -35
-22 -65 -22 -43 -30 -51 -35 -38 -4 10 -11 15 -16 12 -5 -3 -7 -10 -4 -15 4
-5 -1 -9 -9 -9 -11 0 -16 9 -16 27 0 44 -11 19 -17 -38 -3 -30 -9 -59 -14 -65
-6 -7 -4 -16 6 -24 16 -13 15 -14 19 40 1 26 20 21 22 -5 3 -40 -95 -147 -151
-165 -32 -11 -36 -14 -21 -20 14 -5 16 -9 7 -14 -15 -10 -71 12 -72 28 -1 6
-5 0 -9 -14 -8 -24 -8 -24 -9 -3 -1 14 -6 20 -14 18 -6 -3 -18 4 -25 16 -8 12
-9 18 -3 14 6 -3 11 1 11 10 0 10 5 13 13 9 7 -4 9 -3 4 2 -5 5 -12 9 -15 9
-4 0 -13 4 -21 9 -10 6 -12 5 -7 -2 4 -7 -8 -2 -27 11 -23 15 -32 27 -27 36 4
7 4 31 0 52 -4 21 -5 39 -2 39 3 0 -3 7 -14 16 -19 15 -18 15 3 11 13 -3 25
-2 28 3 7 11 -22 21 -42 13 -11 -4 -14 -3 -9 6 6 8 2 11 -9 9 -39 -7 -22 19
22 35 47 18 47 18 65 -5 9 -13 13 -25 7 -27 -6 -1 5 -10 23 -20 30 -14 33 -20
33 -59 0 -43 3 -46 44 -35 23 6 23 7 5 14 -16 6 -16 8 -2 8 19 1 29 38 31 119
1 28 5 48 9 46 11 -7 -4 30 -15 37 -4 3 -2 13 7 21 8 9 12 18 9 22 -4 3 -1 6
5 6 7 0 2 17 -13 40 -14 22 -25 44 -25 50 0 5 -6 10 -14 10 -8 0 -17 4 -20 9
-4 5 4 7 16 4 20 -4 21 -3 5 7 -9 6 -15 15 -12 20 3 4 -1 20 -9 35 -13 25 -8
76 9 93 7 8 5 -20 -4 -43 -5 -11 -3 -28 3 -37 18 -29 24 -21 19 24 -5 32 -3
39 7 33 9 -6 11 -4 5 6 -12 18 -14 69 -3 75 4 3 8 -5 9 -18 0 -22 1 -22 9 -3
6 14 9 15 10 5 0 -12 4 -11 18 5 9 11 24 20 32 20 9 0 19 16 26 44 11 48 29
64 37 34 3 -11 5 -8 6 10 0 16 -3 26 -8 22 -6 -3 -6 7 0 27 5 18 9 34 9 36 0
2 4 1 8 -2 10 -6 54 38 71 72 15 28 24 151 9 131 -8 -12 -9 -12 -5 1 2 8 11
14 20 12 19 -3 32 14 17 23 -6 4 -5 12 5 21 13 13 13 18 0 38 -8 12 -13 25 -9
28 3 3 -6 18 -20 33 -14 15 -23 31 -20 36 3 5 1 9 -4 9 -11 0 -57 39 -51 44
10 8 69 15 69 7 0 -16 47 -33 66 -23 16 9 15 12 -9 36 -15 15 -27 31 -27 37 0
6 -4 7 -10 4 -5 -3 -10 -2 -10 3 0 10 -72 62 -102 74 -10 4 -18 12 -18 18 0 6
-4 9 -9 6 -5 -3 -11 1 -15 9 -3 8 -1 15 5 15 6 0 9 6 7 12 -3 7 2 19 9 27 8 7
12 20 9 27 -3 8 4 18 14 24 13 7 20 21 20 38 0 21 -2 24 -10 12 -8 -12 -10
-10 -10 8 0 13 4 20 10 17 10 -6 14 7 11 34 -2 7 2 10 8 6 14 -8 14 1 1 26 -8
15 -7 19 5 19 14 0 21 29 16 68 -2 9 6 11 26 6 36 -9 53 -32 49 -66 -2 -15 1
-25 5 -22 5 3 9 0 9 -6 0 -6 5 -8 10 -5 6 4 8 16 4 28 -5 20 -3 19 20 -5 14
-15 26 -34 26 -42 0 -9 6 -13 13 -10 14 5 47 -45 47 -73 0 -10 4 -23 9 -28 21
-23 29 -121 30 -372 1 -147 6 -272 11 -278 19 -23 22 -102 5 -135 -22 -43 -28
-33 -17 29 5 28 6 53 2 56 -4 2 -7 -1 -8 -8 -1 -7 -4 -25 -8 -42 -3 -16 -7
-40 -7 -52 -1 -13 -5 -23 -8 -23 -13 0 -30 -132 -26 -207 3 -46 1 -81 -3 -78
-5 3 -11 1 -14 -4 -3 -5 3 -11 14 -14 15 -4 20 0 20 13 0 10 3 26 7 36 4 12 3
15 -5 10 -7 -4 -12 -3 -12 3 0 5 5 11 11 13 6 2 11 39 11 90 1 48 5 85 9 82 5
-3 11 6 14 19 5 19 11 23 35 19 24 -3 31 1 46 29 21 41 21 108 1 146 -9 15
-18 36 -21 46 -5 14 -10 16 -26 7 -16 -9 -18 -8 -14 5 4 8 10 15 16 15 5 0 6
10 3 21 -5 13 -3 19 3 15 13 -8 23 20 17 47 -3 12 -1 29 5 37 9 13 11 13 21 0
8 -12 9 -10 4 9 -4 13 -3 21 2 18 11 -7 34 11 56 43 24 35 21 43 -14 35 -31
-7 -31 -6 -25 21 10 39 35 302 41 441 3 65 8 126 11 135 3 9 -3 56 -12 105
-23 122 -20 254 6 238 5 -3 6 -13 3 -21 -9 -24 33 0 48 27 28 53 -37 183 -116
235 -43 28 -30 36 46 31 80 -6 76 4 -13 38 -54 20 -58 27 -25 43 22 11 22 11
1 11 -13 1 -24 10 -29 24 -4 13 -8 17 -12 10 -2 -7 -13 -13 -24 -13 -10 0 -19
-4 -19 -10 0 -5 -5 -10 -10 -10 -9 0 -9 72 -1 143 1 5 9 6 19 3 9 -3 24 -1 31
4 42 25 -155 22 -236 -4 -18 -6 -23 -3 -23 10 0 16 -1 16 -14 -2 -8 -10 -18
-16 -22 -12 -4 4 -12 0 -19 -9 -11 -15 -14 -14 -30 11 -12 18 -20 23 -25 15
-6 -9 -14 -8 -31 5 -13 9 -33 16 -44 16 -11 0 -28 7 -39 15 -10 7 -43 17 -72
21 -30 3 -57 10 -60 15 -3 5 -16 9 -30 9 -14 0 -34 5 -44 10 -11 6 -46 13 -80
17 -49 5 -58 8 -49 19 15 19 4 18 -26 -2 -17 -11 -25 -12 -25 -4 0 16 26 40
44 40 9 0 16 6 16 14 0 10 -7 12 -22 8 -14 -3 -19 -1 -14 6 8 13 -27 8 -75
-12 -19 -7 -39 -12 -45 -10 -5 3 -21 -7 -34 -21 -13 -14 -34 -25 -47 -25 -13
0 -37 -7 -52 -15 -26 -13 -30 -13 -41 0 -8 10 -17 12 -24 6 -6 -6 -16 -7 -21
-3 -21 15 -64 80 -57 87 4 3 2 5 -4 3 -6 -1 -24 11 -40 28 -26 28 -82 55 -68
33z m-59 -194 c0 -8 -4 -12 -9 -9 -5 3 -6 10 -3 15 9 13 12 11 12 -6z m53 -11
c0 -2 -7 -4 -15 -4 -8 0 -15 4 -15 10 0 5 7 7 15 4 8 -4 15 -8 15 -10z m964
-70 c7 -19 2 -18 -19 6 -16 17 -16 20 -3 15 9 -4 19 -13 22 -21z m281 -3 c-6
-4 -28 -11 -50 -14 -39 -6 -39 -6 -15 8 27 16 80 21 65 6z m-95 -41 c-8 -5
-22 -9 -30 -9 -10 0 -8 3 5 9 27 12 43 12 25 0z m96 -5 c-3 -8 -1 -15 4 -15 6
0 10 -8 9 -17 0 -11 -3 -13 -6 -5 -6 15 -23 16 -23 1 0 -15 -31 -38 -51 -39
-9 0 -21 6 -27 13 -23 28 -17 40 33 57 65 23 68 23 61 5z m205 -342 c13 -17
13 -17 -6 -3 -11 8 -22 16 -24 17 -2 2 0 3 6 3 6 0 17 -8 24 -17z m16 -38 c9
-25 -4 -29 -17 -6 -7 15 -7 21 0 21 6 0 13 -7 17 -15z m-303 -407 c-4 -6 -2
-13 3 -17 6 -3 7 -15 3 -26 -6 -17 -8 -15 -14 13 -4 18 -12 30 -17 26 -5 -3
-9 -1 -9 5 0 11 21 20 33 14 4 -2 4 -9 1 -15z m-156 -34 c1 -13 -3 -24 -8 -24
-13 0 0 -32 19 -47 9 -6 13 -15 8 -19 -4 -4 -13 -2 -19 4 -9 9 -16 8 -32 -6
-18 -16 -19 -16 -13 0 4 12 -3 28 -23 47 -19 21 -27 37 -23 51 5 20 33 29 33
10 0 -5 7 -10 16 -10 13 0 14 3 5 14 -9 11 -7 12 12 9 15 -3 23 -12 25 -29z
m42 7 c0 -6 -4 -13 -10 -16 -5 -3 -10 1 -10 9 0 9 5 16 10 16 6 0 10 -4 10 -9z
m-526 -567 c12 -5 13 -11 5 -32 -6 -15 -8 -47 -4 -70 13 -85 34 -124 100 -188
36 -34 65 -69 65 -78 0 -10 5 -14 10 -11 6 3 10 -2 11 -12 0 -16 1 -16 9 2 8
18 9 17 9 -7 1 -15 -4 -30 -11 -34 -7 -5 -4 -10 10 -15 14 -5 22 -16 21 -31 0
-22 -1 -22 -10 -3 -7 15 -8 11 -5 -17 5 -43 4 -44 -18 -22 -9 8 -16 11 -16 5
0 -5 -13 -8 -30 -6 -27 4 -29 3 -20 -21 13 -34 12 -81 -1 -107 l-12 -21 -8 22
c-14 39 -102 19 -91 -20 3 -15 1 -19 -9 -16 -16 5 -19 122 -4 197 5 30 5 42
-2 38 -16 -10 -33 95 -32 198 0 50 -3 106 -7 125 -8 38 -8 94 0 116 6 15 16
17 40 8z m462 -18 c30 -23 12 -27 -21 -6 -18 12 -24 20 -14 20 8 0 24 -6 35
-14z m-34 -44 l30 -29 -27 -21 c-24 -19 -75 -31 -75 -18 0 3 9 21 21 41 20 33
20 35 3 28 -17 -6 -17 -5 -5 10 17 22 17 22 53 -11z m69 -86 c1 5 1 12 0 17
-1 9 3 9 32 -2 40 -16 41 -65 2 -107 -18 -18 -30 -36 -27 -39 3 -2 -3 -7 -12
-11 -9 -3 -16 -11 -16 -18 0 -15 -79 -17 -96 -3 -10 10 -5 20 24 50 26 26 31
37 20 37 -31 0 -29 19 4 36 18 9 36 22 40 27 10 16 -2 31 -15 18 -6 -6 -15
-11 -21 -11 -5 0 -1 6 10 14 17 13 21 12 37 -1 9 -9 18 -12 18 -7z m-254 -358
c-3 -8 -6 -5 -6 6 -1 11 2 17 5 13 3 -3 4 -12 1 -19z m44 -5 c-12 -20 -14 -14
-5 12 4 9 9 14 11 11 3 -2 0 -13 -6 -23z m476 5 c-3 -8 -6 -5 -6 6 -1 11 2 17
5 13 3 -3 4 -12 1 -19z m-487 -834 c0 -8 -5 -12 -10 -9 -6 4 -8 11 -5 16 9 14
15 11 15 -7z m-280 -294 c0 -5 -7 -7 -15 -4 -8 4 -15 8 -15 10 0 2 7 4 15 4 8
0 15 -4 15 -10z m555 -280 c-4 -12 -9 -19 -12 -17 -3 3 -2 15 2 27 4 12 9 19
12 17 3 -3 2 -15 -2 -27z m-1342 -96 c10 -38 21 -106 24 -150 5 -76 7 -82 34
-98 16 -9 34 -16 41 -14 18 4 208 -83 203 -93 -3 -4 1 -10 7 -12 7 -3 2 -6
-12 -6 -36 -1 -144 28 -148 40 -2 5 -8 7 -13 3 -5 -3 -9 0 -9 5 0 6 -5 11 -11
11 -6 0 -30 14 -55 30 -57 40 -78 80 -71 137 4 36 1 45 -14 53 -11 6 -21 10
-24 10 -3 0 -7 15 -9 33 -6 43 13 129 28 124 6 -2 19 -35 29 -73z m1307 -9
c-12 -30 -19 -59 -14 -66 4 -8 3 -9 -4 -5 -7 4 -12 2 -12 -4 0 -16 -32 -82
-37 -77 -2 3 15 55 39 117 23 62 44 107 46 101 2 -7 -6 -36 -18 -66z m-1700
-43 c0 -19 -88 -142 -102 -142 -12 0 40 92 69 123 29 29 33 32 33 19z m-136
-87 c-11 -27 -12 -40 -3 -56 6 -11 8 -23 6 -26 -3 -2 -8 5 -12 16 -7 23 -25
29 -25 8 0 -7 -14 -26 -32 -43 -25 -23 -30 -25 -24 -9 15 41 20 88 8 81 -7 -4
-12 -3 -12 3 0 8 82 57 102 60 4 1 0 -15 -8 -34z m110 -70 c-4 -8 -8 -15 -10
-15 -2 0 -4 7 -4 15 0 8 4 15 10 15 5 0 7 -7 4 -15z m-104 -85 c-11 -62 -21
-61 -18 2 2 40 6 53 14 47 7 -6 9 -23 4 -49z m1591 -17 c-8 -15 -10 -15 -11
-2 0 17 10 32 18 25 2 -3 -1 -13 -7 -23z m-2404 -210 c2 -53 0 -63 -8 -44 -5
13 -7 32 -4 41 3 9 -1 23 -10 30 -19 16 -20 34 0 26 8 -3 15 -1 15 4 0 6 1 10
3 10 1 0 3 -30 4 -67z m2113 -37 c0 -2 -9 -6 -20 -9 -11 -3 -18 -1 -14 4 5 9
34 13 34 5z m-20 -46 c0 -25 -35 -80 -50 -77 -19 4 -16 40 7 67 18 21 43 27
43 10z"/>
<path d="M2950 5159 c0 -5 5 -7 10 -4 6 3 10 8 10 11 0 2 -4 4 -10 4 -5 0 -10
-5 -10 -11z"/>
<path d="M4284 3375 c-22 -33 -28 -98 -19 -182 l8 -68 12 55 c36 167 42 220
25 220 -5 0 -17 -11 -26 -25z"/>
<path d="M4141 3174 c0 -11 3 -14 6 -6 3 7 2 16 -1 19 -3 4 -6 -2 -5 -13z"/>
<path d="M4251 3034 c0 -11 3 -14 6 -6 3 7 2 16 -1 19 -3 4 -6 -2 -5 -13z"/>
<path d="M3806 2983 c-6 -14 -5 -15 5 -6 7 7 10 15 7 18 -3 3 -9 -2 -12 -12z"/>
<path d="M4210 2970 c-14 -10 -22 -21 -20 -24 3 -2 16 4 30 14 14 10 22 21 20
24 -3 2 -16 -4 -30 -14z"/>
<path d="M3936 2712 c-14 -3 -15 -6 -6 -12 7 -4 12 -26 12 -49 -1 -42 4 -50
36 -56 15 -3 18 2 14 21 -2 13 -8 27 -13 30 -5 3 -9 15 -9 27 0 31 -12 44 -34
39z m38 -78 c9 -22 -3 -32 -14 -14 -12 19 -12 30 -1 30 5 0 12 -7 15 -16z"/>
<path d="M4042 2600 c0 -14 2 -19 5 -12 2 6 2 18 0 25 -3 6 -5 1 -5 -13z"/>
<path d="M3906 2553 c-4 -9 -2 -21 4 -27 7 -7 10 -2 10 17 0 31 -5 34 -14 10z"/>
<path d="M3932 2470 c0 -14 2 -19 5 -12 2 6 2 18 0 25 -3 6 -5 1 -5 -13z"/>
<path d="M3650 2220 c13 -23 20 -26 20 -6 0 8 -7 16 -15 20 -13 4 -14 2 -5
-14z"/>
<path d="M2005 1490 c-38 -16 -66 -29 -60 -29 12 -1 145 49 145 55 0 8 -15 3
-85 -26z"/>
<path d="M1870 1440 c-8 -5 -10 -10 -5 -10 6 0 17 5 25 10 8 5 11 10 5 10 -5
0 -17 -5 -25 -10z"/>
<path d="M1775 1405 c-25 -12 -26 -14 -5 -9 28 7 60 23 45 23 -5 0 -23 -6 -40
-14z"/>
<path d="M4840 1290 c0 -5 5 -10 11 -10 5 0 7 5 4 10 -3 6 -8 10 -11 10 -2 0
-4 -4 -4 -10z"/>
<path d="M5074 1263 c-4 -10 -7 -21 -6 -25 1 -3 -5 -11 -13 -18 -11 -9 -21 -8
-46 4 -44 22 -46 20 -10 -10 47 -39 40 -60 -40 -136 -40 -38 -75 -68 -79 -68
-4 0 -15 -18 -25 -41 -16 -35 -22 -40 -44 -34 -25 6 -25 6 -7 -14 19 -21 19
-21 -7 -21 -15 0 -27 -6 -27 -12 0 -14 -48 -74 -54 -67 -1 2 -7 12 -12 21 -6
11 -9 -8 -10 -60 0 -43 -6 -86 -12 -97 -6 -11 -12 -14 -12 -7 0 7 -5 10 -10 7
-30 -18 21 -24 211 -25 l210 0 5 30 c4 16 11 27 16 24 5 -3 8 0 6 7 -1 8 11
43 28 79 18 36 35 75 38 87 4 12 43 54 87 94 66 59 77 74 67 86 -10 13 -6 14
28 9 42 -7 37 -3 -49 33 -26 11 -46 25 -45 32 2 6 -13 17 -32 24 -20 7 -34 18
-32 26 1 8 -4 6 -13 -5 -10 -14 -18 -16 -27 -8 -7 6 -15 10 -18 11 -26 1 -36
15 -34 51 2 42 -17 56 -32 23z m58 -173 c4 0 8 3 8 8 0 4 9 13 21 20 18 11 24
11 40 -4 31 -28 22 -47 -39 -84 -31 -19 -73 -51 -93 -72 -21 -20 -47 -39 -58
-43 -12 -3 -19 -10 -17 -13 9 -15 -24 -72 -41 -72 -10 0 -29 -9 -43 -20 -14
-11 -29 -20 -34 -20 -5 0 -18 -7 -28 -17 -17 -15 -18 -15 -18 5 0 12 5 22 10
22 6 0 10 6 10 13 0 8 11 19 24 26 13 7 29 23 35 35 28 51 40 67 80 111 35 38
45 44 57 34 12 -10 16 -8 21 9 3 12 9 20 13 17 16 -10 20 13 8 40 -10 22 -9
28 3 35 10 7 17 4 23 -10 5 -11 13 -20 18 -20z m-262 -230 c0 -5 -5 -10 -11
-10 -5 0 -7 5 -4 10 3 6 8 10 11 10 2 0 4 -4 4 -10z"/>
<path d="M5020 980 c-13 -8 -12 -10 3 -10 9 0 17 5 17 10 0 12 -1 12 -20 0z"/>
<path d="M4990 934 c0 -8 5 -12 10 -9 6 3 10 10 10 16 0 5 -4 9 -10 9 -5 0
-10 -7 -10 -16z"/>
<path d="M4640 1231 c0 -6 4 -13 10 -16 6 -3 7 1 4 9 -7 18 -14 21 -14 7z"/>
<path d="M4659 1090 l-5 -95 48 -48 c35 -34 48 -42 48 -30 1 10 12 49 25 88
13 38 23 71 21 72 -1 1 -16 -21 -32 -50 -53 -92 -84 -68 -94 73 l-6 85 -5 -95z"/>
<path d="M4897 1085 c-9 -32 -15 -60 -13 -63 6 -6 38 97 34 110 -2 6 -12 -15
-21 -47z"/>
<path d="M4820 1065 c0 -8 4 -15 10 -15 5 0 7 7 4 15 -4 8 -8 15 -10 15 -2 0
-4 -7 -4 -15z"/>
<path d="M5407 1059 c7 -7 15 -10 18 -7 3 3 -2 9 -12 12 -14 6 -15 5 -6 -5z"/>
<path d="M5483 1010 c14 -12 24 -26 22 -33 -3 -7 12 -20 33 -30 l37 -18 -26
24 c-14 12 -24 28 -22 34 3 7 -9 19 -26 27 -41 22 -49 20 -18 -4z"/>
<path d="M4251 974 c-13 -29 -6 -47 9 -24 9 14 14 50 7 50 -2 0 -9 -12 -16
-26z"/>
<path d="M5460 948 c0 -20 4 -39 9 -43 18 -10 21 13 6 46 l-14 34 -1 -37z"/>
<path d="M4110 914 c0 -14 4 -23 10 -19 6 3 10 15 10 26 0 10 -4 19 -10 19 -5
0 -10 -12 -10 -26z"/>
<path d="M4050 913 c-23 -25 -29 -46 -19 -65 6 -11 5 -35 -2 -63 -11 -42 -10
-48 10 -69 13 -14 19 -29 15 -39 -3 -10 -1 -17 5 -17 6 0 11 18 11 43 0 27 -3
37 -9 29 -6 -10 -10 -8 -14 9 -8 30 -1 36 22 22 11 -7 22 -9 25 -6 12 12 5
138 -8 156 -16 21 -17 21 -36 0z"/>
<path d="M4530 836 c0 -8 5 -18 10 -21 6 -3 10 3 10 14 0 12 -4 21 -10 21 -5
0 -10 -6 -10 -14z"/>
<path d="M3997 825 c-4 -8 -2 -17 3 -20 6 -4 10 3 10 14 0 25 -6 27 -13 6z"/>
<path d="M3876 792 c-4 -18 -5 -36 -2 -39 11 -12 17 5 14 39 l-3 33 -9 -33z"/>
<path d="M5296 798 c-2 -7 -11 -38 -20 -69 -20 -71 -20 -69 8 -69 17 0 26 7
30 25 4 14 11 25 16 25 6 0 10 -11 10 -25 0 -16 6 -25 15 -25 20 0 19 6 -5 40
-11 16 -17 35 -14 44 3 9 1 16 -5 16 -6 0 -11 9 -11 19 0 23 -19 38 -24 19z"/>
<path d="M3950 792 c0 -7 -4 -11 -9 -8 -11 7 -21 -28 -12 -43 12 -19 43 27 32
47 -7 11 -11 12 -11 4z"/>
<path d="M3420 758 c-12 -22 -12 -22 6 -6 10 10 15 20 12 24 -4 3 -12 -5 -18
-18z"/>
<path d="M4310 760 c0 -5 5 -10 10 -10 6 0 10 5 10 10 0 6 -4 10 -10 10 -5 0
-10 -4 -10 -10z"/>
<path d="M3310 751 c0 -6 4 -13 10 -16 6 -3 7 1 4 9 -7 18 -14 21 -14 7z"/>
<path d="M3870 715 c-5 -14 -7 -32 -4 -40 11 -28 21 -15 21 25 0 46 -4 50 -17
15z"/>
<path d="M3161 687 c-21 -21 -11 -27 52 -26 34 0 55 3 47 6 -8 3 -17 9 -20 13
-10 13 -67 19 -79 7z"/>
<path d="M4025 680 c3 -5 8 -10 11 -10 2 0 4 5 4 10 0 6 -5 10 -11 10 -5 0 -7
-4 -4 -10z"/>
<path d="M3285 670 c-3 -5 1 -10 10 -10 9 0 13 5 10 10 -3 6 -8 10 -10 10 -2
0 -7 -4 -10 -10z"/>
</g>
</svg>
